{"title":"Busty blonde with hanging tits pounded by a big black cock[VPSR]","uid":10751477,"size":143014189,"categoryP":"porn","categoryS":"other","magnet":"?xt=urn:btih:e19849f1522cf310e2345f13c6c6174e2b0ecfad&amp;dn=Busty+blonde+with+hanging+tits+pounded+by+a+big+black+cock%5BVPSR%5D&amp;tr=udp%3A%2F%2Ftracker.openbittorrent.com%3A80&amp;tr=udp%3A%2F%2Fopen.demonii.com%3A1337&amp;tr=udp%3A%2F%2Ftracker.coppersurfer.tk%3A6969&amp;tr=udp%3A%2F%2Fexodus.desync.com%3A6969","seeders":0,"leechers":1,"uploader":"vpsr","files":1,"time":1407875537,"description":"Busty blonde with hanging tits pounded by a big black cock[VPSR].flv\n\n\n &lt;a href=&quot;\nhttp://s25.postimg.org/bup48qwm7/busty.jpg&quot; rel=&quot;nofollow&quot; target=&quot;_NEW&quot;&gt;\nhttp://s25.postimg.org/bup48qwm7/busty.jpg&lt;/a&gt;\n\n\n &lt;a href=&quot;\nhttp://s25.postimg.org/edat9ficf/Busty_blonde_with_hanging_tits_pounded_by_a_big.jpg&quot; rel=&quot;nofollow&quot; target=&quot;_NEW&quot;&gt;\nhttp://s25.postimg.org/edat9ficf/Busty_blonde_with_hanging_tits_pounded_by_a_big.jpg&lt;/a&gt;\n\n\n\nFILE INFO\n\n\nGeneral\nComplete name                            : Busty blonde with hanging tits pounded by a big black cock[VPSR].flv\nFormat                                   : Flash Video\nFile size                                : 136 MiB\nDuration                                 : 32mn 46s\nOverall bit rate                         : 582 Kbps\nTagged date                              : UTC 2014-08-10 00:07:49\nTagging application                      : flvtool++ (Facebook, Motion project, dweatherford)\n\nVideo\nFormat                                   : AVC\nFormat/Info                              : Advanced Video Codec\nFormat profile                           : &lt;a class=&quot;__cf_email__&quot; href=&quot;/cdn-cgi/l/email-protection&quot; data-cfemail=&quot;cd85a4aaa58d81ffe3fd&quot;&gt;[email&amp;#160;protected]&lt;/a&gt;&lt;script cf-hash='f9e31' type=&quot;text/javascript&quot;&gt;\n/* &lt;![CDATA[ */!function(){try{var t=&quot;currentScript&quot;in document?document.currentScript:function(){for(var t=document.getElementsByTagName(&quot;script&quot;),e=t.length;e--;)if(t[e].getAttribute(&quot;cf-hash&quot;))return t[e]}();if(t&amp;&amp;t.previousSibling){var e,r,n,i,c=t.previousSibling,a=c.getAttribute(&quot;data-cfemail&quot;);if(a){for(e=&quot;&quot;,r=parseInt(a.substr(0,2),16),n=2;a.length-n;n+=2)i=parseInt(a.substr(n,2),16)^r,e+=String.fromCharCode(i);e=document.createTextNode(e),c.parentNode.replaceChild(e,c)}}}catch(u){}}();/* ]]&gt; */&lt;/script&gt;\nFormat settings, CABAC                   : Yes\nFormat settings, ReFrames                : 4 frames\nCodec ID                                 : 7\nDuration                                 : 32mn 46s\nBit rate                                 : 512 Kbps\nWidth                                    : 320 pixels\nHeight                                   : 240 pixels\nDisplay aspect ratio                     : 4:3\nFrame rate mode                          : Constant\nFrame rate                               : 30.000 fps\nColor space                              : YUV\nChroma subsampling                       : 4:2:0\nBit depth                                : 8 bits\nScan type                                : Progressive\nBits/(Pixel*Frame)                       : 0.222\nStream size                              : 120 MiB (88%)\nWriting library                          : x264 core 125\n\nAudio\nFormat                                   : AAC\nFormat/Info                              : Advanced Audio Codec\nFormat profile                           : LC\nCodec ID                                 : 10\nDuration                                 : 32mn 46s\nBit rate                                 : 59.6 Kbps\nChannel(s)                               : 2 channels\nChannel positions                        : Front: L R\nSampling rate                            : 44.1 KHz\nCompression mode                         : Lossy\nStream size                              : 14.0 MiB (10%)\n\n","torrent":{"xt":"urn:btih:e19849f1522cf310e2345f13c6c6174e2b0ecfad","amp;dn":"Busty+blonde+with+hanging+tits+pounded+by+a+big+black+cock%5BVPSR%5D","amp;tr":["udp%3A%2F%2Ftracker.openbittorrent.com%3A80","udp%3A%2F%2Fopen.demonii.com%3A1337","udp%3A%2F%2Ftracker.coppersurfer.tk%3A6969","udp%3A%2F%2Fexodus.desync.com%3A6969"],"infoHash":"e19849f1522cf310e2345f13c6c6174e2b0ecfad","infoHashBuffer":{"type":"Buffer","data":[225,152,73,241,82,44,243,16,226,52,95,19,198,198,23,78,43,14,207,173]},"announce":[],"urlList":[]}}